#!OML:ASF F:\VICON\USERDATA\INSTALL\rory3\rory3.ASF
:FULLY-SPECIFIED
:DEGREES
108
root 2.53472 17.5617 -19.1695 238.121 -62.6415 -72.1332
lowerback 7.7718 2.52815 -2.5229
upperback -10.3952 2.45987 -3.59076
thorax -15.9526 1.11469 -3.15741
lowerneck -26.4943 0.325336 -10.3279
upperneck -8.18688 2.90198 8.4301
head 1.23679 1.79677 4.56308
rclavicle 4.77083e-014 4.45278e-014
rhumerus 77.3012 -32.8406 -7.40145
rradius 25.5392
rwrist 0.0397467
rhand -30.8601 -75.4604
rfingers 7.12502
rthumb 175.852 -74.6002
lclavicle 4.77083e-014 4.45278e-014
lhumerus 71.0162 30.9895 7.42464
lradius 30.1711
lwrist 45.7201
lhand -45.1828 -261.792
lfingers 7.12502
lthumb -17.9595 -69.0169
rfemur -7.49817 1.2127 0.415418
rtibia 13.47
rfoot -15.4403 -37.1131
rtoes -0.689462
lfemur -47.3537 20.6021 48.5143
ltibia 24.0904
lfoot -32.0354 45.3485
ltoes 5.05756
109
root 2.59388 17.5478 -18.9938 239.793 -61.8984 -74.4242
lowerback 8.1926 2.36244 -2.96488
upperback -10.0881 2.16395 -3.68258
thorax -15.8747 1.02569 -2.95777
lowerneck -26.9569 0.193424 -10.3385
upperneck -8.25488 2.72257 9.3303
head 1.29618 1.72214 4.8529
rclavicle 1.51076e-013 4.77083e-014
rhumerus 77.0934 -34.3448 -9.26734
rradius 27.254
rwrist 3.05794
rhand -29.6917 -70.8974
rfingers 7.12502
rthumb 176.98 -79.1442
lclavicle 1.51076e-013 4.77083e-014
lhumerus 71.6664 31.5486 8.40334
lradius 29.6624
lwrist 44.6027
lhand -44.77 -263.261
lfingers 7.12502
lthumb -17.5624 -67.5118
rfemur -7.81298 0.205238 1.67409
rtibia 16.4101
rfoot -15.2068 -36.61
rtoes -1.47132
lfemur -47.0715 21.5101 49.8935
ltibia 22.6862
lfoot -33.0125 46.0593
ltoes 7.94369
110
root 2.65408 17.5171 -18.804 241.239 -60.9116 -76.6346
lowerback 8.65205 2.22377 -3.49972
upperback -9.73129 1.87089 -3.88035
thorax -15.7596 0.937968 -2.82289
lowerneck -28.4251 0.918571 -8.8289
upperneck -6.9891 3.30406 8.1451
head 1.83347 1.96463 4.30426
rclavicle -3.97569e-014 -1.43125e-014
rhumerus 76.0975 -35.8149 -7.61929
rradius 27.105
rwrist 4.02451
rhand -27.5739 -67.1483
rfingers 7.12502
rthumb 179.026 -82.8742
lclavicle -3.97569e-014 -1.43125e-014
lhumerus 70.5361 32.4234 8.93713
lradius 30.3832
lwrist 44.101
lhand -46.7609 -260.08
lfingers 7.12502
lthumb -19.4774 -70.8759
rfemur -7.90922 -0.771246 2.67345
rtibia 19.0946
rfoot -14.2454 -36.0428
rtoes -3.58256
lfemur -46.7987 22.0305 51.1981
ltibia 21.7094
lfoot -34.22 47.1079
ltoes 10.2496
111
root 2.72891 17.4965 -18.606 241.459 -60.5807 -77.6536
lowerback 9.1638 2.18292 -2.50105
upperback -9.33011 1.9768 -3.83541
thorax -15.5476 0.878943 -3.35343
lowerneck -28.0445 1.38944 -7.80157
upperneck -7.14763 3.59658 7.29492
head 1.7344 2.03769 3.87855
rclavicle 8.26944e-014 -2.54444e-014
rhumerus 71.9282 -36.9142 -1.32931
rradius 27.2669
rwrist 1.53664
rhand -26.7473 -65.5748
rfingers 7.12502
rthumb 179.824 -84.4455
lclavicle 8.26944e-014 -2.54444e-014
lhumerus 71.8084 32.8234 10.3258
lradius 29.4861
lwrist 43.2365
lhand -49.75 -253.582
lfingers 7.12502
lthumb -22.3491 -77.6904
rfemur -7.83178 -1.17574 4.62037
rtibia 21.6962
rfoot -12.8193 -35.6125
rtoes -6.06689
lfemur -46.5476 23.163 53.0625
ltibia 20.8901
lfoot -33.8714 48.373
ltoes 11.285
112
root 2.76396 17.4398 -18.4712 244.625 -57.2557 -82.0659
lowerback 9.79928 2.23016 -5.58702
upperback -8.89602 1.41582 -4.64202
thorax -15.563 0.894309 -2.42845
lowerneck -29.4466 0.751178 -10.0664
upperneck -6.00877 3.50557 8.98388
head 2.21979 2.16022 4.82493
rclavicle -1.92424e-013 -1.27222e-013
rhumerus 69.1855 -37.9312 1.54382
rradius 27.8055
rwrist 1.32067
rhand -26.7973 -65.5883
rfingers 7.12502
rthumb 179.776 -84.432
lclavicle -1.92424e-013 -1.27222e-013
lhumerus 70.619 33.8542 11.3366
lradius 30.1661
lwrist 43.4114
lhand -49.4983 -253.687
lfingers 7.12502
lthumb -22.1075 -77.5566
rfemur -7.79945 -2.14427 2.90192
rtibia 24.3031
rfoot -10.8401 -35.0192
rtoes -9.33832
lfemur -46.0443 21.551 52.4312
ltibia 20.3741
lfoot -37.5395 50.8741
ltoes 14.4557
113
root 2.83264 17.4021 -18.2712 245.716 -56.1953 -83.9273
lowerback 10.262 2.10871 -5.66385
upperback -8.54231 1.20496 -4.88657
thorax -15.4258 0.788043 -2.61376
lowerneck -29.7267 1.1145 -8.85513
upperneck -5.66119 3.56653 8.69363
head 2.38063 2.14352 4.54996
rclavicle 2.54444e-014 3.18055e-015
rhumerus 66.2478 -38.8048 4.35171
rradius 28.0453
rwrist 0.923541
rhand -26.9484 -66.9644
rfingers 7.12502
rthumb 179.63 -83.0561
lclavicle 2.54444e-014 3.18055e-015
lhumerus 70.4193 34.4392 11.4192
lradius 30.0297
lwrist 43.3833
lhand -50.053 -253.643
lfingers 7.12502
lthumb -22.6399 -77.6647
rfemur -8.00255 -2.99428 4.03066
rtibia 27.0193
rfoot -9.9159 -34.6353
rtoes -11.0193
lfemur -46.1047 22.2849 53.3249
ltibia 19.8621
lfoot -37.8488 51.7314
ltoes 15.8249
114
root 2.90808 17.3612 -18.0737 246.719 -55.1392 -85.657
lowerback 10.5688 1.97408 -5.86434
upperback -8.19664 0.971526 -5.12663
thorax -15.205 0.686668 -2.71098
lowerneck -30.1247 1.58705 -7.06981
upperneck -5.05769 3.53913 8.51956
head 2.65491 2.07806 4.21995
rclavicle -1.39944e-013 -5.40694e-014
rhumerus 63.7551 -39.6889 6.08227
rradius 27.9664
rwrist 0.762307
rhand -27.3404 -68.9755
rfingers 7.12502
rthumb 179.251 -81.046
lclavicle -1.39944e-013 -5.40694e-014
lhumerus 70.978 34.9173 12.2254
lradius 29.5909
lwrist 42.5214
lhand -49.4858 -255.318
lfingers 7.12502
lthumb -22.0955 -75.9243
rfemur -8.33569 -3.50288 5.2147
rtibia 29.8403
rfoot -11.2029 -34.1606
rtoes -9.38558
lfemur -46.2534 23.383 53.9309
ltibia 19.5336
lfoot -38.3449 51.5088
ltoes 17.4724
